<svg width="27" height="27" viewBox="0 0 27 27" fill="none" xmlns="http://www.w3.org/2000/svg">
<path d="M7.04243 24.0619H6.75C5.68934 24.0619 5.15901 24.0619 4.8295 23.7324C4.5 23.4029 4.5 22.8726 4.5 21.8119V20.561C4.5 19.9777 4.5 19.686 4.64983 19.4255C4.79965 19.1651 5.02568 19.0336 5.47774 18.7707C8.45389 17.0397 12.6805 16.0653 15.5014 17.7479C15.691 17.8609 15.8614 17.9974 16.0071 18.161C16.635 18.8662 16.5892 19.9306 15.8656 20.5622C15.7128 20.6955 15.5499 20.7967 15.3859 20.8318C15.5207 20.8162 15.6499 20.7983 15.7731 20.7787C16.7985 20.6151 17.6592 20.0672 18.4471 19.472L20.4802 17.9362C21.1969 17.3947 22.2607 17.3946 22.9776 17.9359C23.623 18.4232 23.8203 19.2256 23.4123 19.8796C22.9365 20.6423 22.2661 21.618 21.6224 22.2142C20.9778 22.8112 20.0181 23.3442 19.2347 23.7223C18.3668 24.1412 17.408 24.3826 16.4328 24.5405C14.455 24.8606 12.3936 24.8118 10.4359 24.4084C9.3291 24.1804 8.17964 24.0619 7.04243 24.0619Z" fill="#000080"/>
<path d="M12.2189 3.78377C12.7889 2.76126 13.0739 2.25 13.5 2.25C13.9261 2.25 14.2111 2.76126 14.7811 3.78377L14.9285 4.0483C15.0905 4.33887 15.1715 4.48415 15.2978 4.58001C15.4241 4.67587 15.5813 4.71146 15.8959 4.78262L16.1822 4.84741C17.2891 5.09785 17.8425 5.22307 17.9742 5.64648C18.1058 6.06989 17.7285 6.51108 16.974 7.39347L16.7787 7.62175C16.5643 7.8725 16.4571 7.99787 16.4089 8.15297C16.3606 8.30808 16.3768 8.47535 16.4093 8.8099L16.4388 9.11448C16.5529 10.2918 16.6099 10.8804 16.2652 11.1421C15.9205 11.4038 15.4023 11.1652 14.3659 10.688L14.0978 10.5646C13.8033 10.429 13.6561 10.3612 13.5 10.3612C13.3439 10.3612 13.1967 10.429 12.9022 10.5646L12.6341 10.688C11.5977 11.1652 11.0795 11.4038 10.7348 11.1421C10.3901 10.8804 10.4471 10.2918 10.5612 9.11448L10.5907 8.8099C10.6232 8.47535 10.6394 8.30808 10.5911 8.15297C10.5429 7.99787 10.4357 7.8725 10.2213 7.62175L10.026 7.39347C9.27146 6.51108 8.89417 6.06989 9.02584 5.64648C9.15751 5.22307 9.71094 5.09785 10.8178 4.84741L11.1041 4.78262C11.4187 4.71146 11.5759 4.67587 11.7022 4.58001C11.8285 4.48415 11.9095 4.33887 12.0715 4.04831L12.2189 3.78377Z" fill="#000080"/>
<path d="M21.8595 8.64188C22.1445 8.13063 22.287 7.875 22.5 7.875C22.713 7.875 22.8555 8.13063 23.1405 8.64188L23.2143 8.77415C23.2953 8.91944 23.3358 8.99208 23.3989 9.04001C23.462 9.08794 23.5407 9.10573 23.6979 9.14131L23.8411 9.17371C24.3945 9.29892 24.6712 9.36153 24.7371 9.57324C24.8029 9.78494 24.6143 10.0055 24.237 10.4467L24.1394 10.5609C24.0322 10.6862 23.9785 10.7489 23.9544 10.8265C23.9303 10.904 23.9384 10.9877 23.9546 11.1549L23.9694 11.3072C24.0264 11.8959 24.0549 12.1902 23.8826 12.321C23.7102 12.4519 23.4511 12.3326 22.933 12.094L22.7989 12.0323C22.6517 11.9645 22.578 11.9306 22.5 11.9306C22.422 11.9306 22.3483 11.9645 22.2011 12.0323L22.067 12.094C21.5489 12.3326 21.2898 12.4519 21.1174 12.321C20.9451 12.1902 20.9736 11.8959 21.0306 11.3072L21.0454 11.155C21.0616 10.9877 21.0697 10.904 21.0456 10.8265C21.0215 10.7489 20.9678 10.6862 20.8606 10.5609L20.763 10.4467C20.3857 10.0055 20.1971 9.78494 20.2629 9.57324C20.3288 9.36153 20.6055 9.29892 21.1589 9.17371L21.3021 9.14131C21.4593 9.10573 21.538 9.08794 21.6011 9.04001C21.6642 8.99208 21.7047 8.91944 21.7857 8.77415L21.8595 8.64188Z" fill="#000080"/>
<path d="M3.85946 8.64188C4.14446 8.13063 4.28696 7.875 4.5 7.875C4.71304 7.875 4.85554 8.13063 5.14054 8.64188L5.21427 8.77415C5.29526 8.91944 5.33575 8.99208 5.39889 9.04001C5.46203 9.08794 5.54066 9.10573 5.69793 9.14131L5.8411 9.17371C6.39453 9.29892 6.67125 9.36153 6.73708 9.57324C6.80291 9.78494 6.61427 10.0055 6.23698 10.4467L6.13937 10.5609C6.03215 10.6862 5.97855 10.7489 5.95443 10.8265C5.93031 10.904 5.93842 10.9877 5.95463 11.1549L5.96939 11.3072C6.02643 11.8959 6.05495 12.1902 5.88259 12.321C5.71024 12.4519 5.45115 12.3326 4.93297 12.094L4.79892 12.0323C4.65167 11.9645 4.57804 11.9306 4.5 11.9306C4.42196 11.9306 4.34833 11.9645 4.20108 12.0323L4.06703 12.094C3.54885 12.3326 3.28976 12.4519 3.11741 12.321C2.94505 12.1902 2.97357 11.8959 3.03061 11.3072L3.04537 11.155C3.06158 10.9877 3.06969 10.904 3.04557 10.8265C3.02145 10.7489 2.96785 10.6862 2.86063 10.5609L2.76302 10.4467C2.38573 10.0055 2.19709 9.78494 2.26292 9.57324C2.32875 9.36153 2.60547 9.29892 3.1589 9.17371L3.30207 9.14131C3.45934 9.10573 3.53797 9.08794 3.60111 9.04001C3.66425 8.99208 3.70474 8.91944 3.78573 8.77415L3.85946 8.64188Z" fill="#000080"/>
</svg>
