<svg width="1526" height="458" viewBox="0 0 1526 458" fill="none" xmlns="http://www.w3.org/2000/svg">
<g clip-path="url(#clip0_52_6602)">
<rect x="0.5" y="0.5" width="1525" height="457" rx="15" fill="#F39A8B" fill-opacity="0.15"/>
<g opacity="0.5" clip-path="url(#clip1_52_6602)">
<mask id="mask0_52_6602" style="mask-type:alpha" maskUnits="userSpaceOnUse" x="727" y="-50" width="612" height="622">
<path d="M1318.71 157.866C1376.85 318.923 1296.08 495.612 1138.37 552.538C980.662 609.465 805.665 525.095 747.53 364.038C689.395 202.981 770.162 26.2923 927.871 -30.6339C1085.58 -87.5602 1260.58 -3.19095 1318.71 157.866Z" fill="#808080" stroke="#000080" stroke-width="2"/>
</mask>
<g mask="url(#mask0_52_6602)">
<ellipse cx="815.1" cy="249.812" rx="20.0799" ry="20.5" transform="rotate(-19.8474 815.1 249.812)" fill="#9C27B0"/>
<ellipse cx="941.992" cy="95.0364" rx="5.87704" ry="6" transform="rotate(-19.8474 941.992 95.0364)" fill="#F44336"/>
<ellipse cx="995.865" cy="69.7438" rx="17.1414" ry="17.5" transform="rotate(-19.8474 995.865 69.7438)" fill="#9C27B0"/>
<ellipse cx="1099.13" cy="468.36" rx="21.0594" ry="21.5" transform="rotate(-19.8474 1099.13 468.36)" fill="#E91E63"/>
<ellipse cx="909.641" cy="2.52506" rx="15.6721" ry="16" transform="rotate(-19.8474 909.641 2.52506)" fill="#E91E63"/>
<ellipse cx="1041.07" cy="216.62" rx="20.5696" ry="21" transform="rotate(-19.8474 1041.07 216.62)" fill="#F44336"/>
<ellipse cx="1157.23" cy="3.52834" rx="20.0799" ry="20.5" transform="rotate(-19.8474 1157.23 3.52834)" fill="#E91E63"/>
<ellipse cx="739.845" cy="316.844" rx="5.87704" ry="6" transform="rotate(-19.8474 739.845 316.844)" fill="#9C27B0"/>
<ellipse cx="1057.21" cy="65.1437" rx="4.89754" ry="5" transform="rotate(-19.8474 1057.21 65.1437)" fill="#9C27B0"/>
<ellipse cx="752.239" cy="207.368" rx="10.2848" ry="10.5" transform="rotate(-19.8474 752.239 207.368)" fill="#F44336"/>
<ellipse cx="818.87" cy="79.9421" rx="4.89754" ry="5" transform="rotate(-19.8474 818.87 79.9421)" fill="#9C27B0"/>
<ellipse cx="1020.96" cy="450.86" rx="13.2233" ry="13.5" transform="rotate(-19.8474 1020.96 450.86)" fill="#9C27B0"/>
<ellipse cx="861.977" cy="47.9036" rx="7.3463" ry="7.5" transform="rotate(-19.8474 861.977 47.9036)" fill="#F44336"/>
<ellipse cx="983.06" cy="27.0556" rx="13.7131" ry="14" transform="rotate(-19.8474 983.06 27.0556)" fill="#E91E63"/>
<ellipse cx="1059.6" cy="233.322" rx="18.6106" ry="19" transform="rotate(-19.8474 1059.6 233.322)" fill="#F44336"/>
<ellipse cx="934.159" cy="395.015" rx="5.38729" ry="5.5" transform="rotate(-19.8474 934.159 395.015)" fill="#9C27B0"/>
<ellipse cx="994.917" cy="361.389" rx="8.32581" ry="8.5" transform="rotate(-19.8474 994.917 361.389)" fill="#F44336"/>
<ellipse cx="1156.06" cy="421.233" rx="14.2029" ry="14.5" transform="rotate(-19.8474 1156.06 421.233)" fill="#F44336"/>
</g>
</g>
<g opacity="0.5" clip-path="url(#clip2_52_6602)">
<mask id="mask1_52_6602" style="mask-type:alpha" maskUnits="userSpaceOnUse" x="1174" y="-50" width="612" height="622">
<path d="M1765.21 157.866C1823.35 318.923 1742.58 495.612 1584.87 552.538C1427.16 609.465 1252.16 525.095 1194.03 364.038C1135.9 202.981 1216.66 26.2923 1374.37 -30.6339C1532.08 -87.5602 1707.08 -3.19095 1765.21 157.866Z" fill="#808080" stroke="#000080" stroke-width="2"/>
</mask>
<g mask="url(#mask1_52_6602)">
<ellipse cx="1261.6" cy="249.812" rx="20.0799" ry="20.5" transform="rotate(-19.8474 1261.6 249.812)" fill="#9C27B0"/>
<ellipse cx="1388.49" cy="95.0364" rx="5.87704" ry="6" transform="rotate(-19.8474 1388.49 95.0364)" fill="#F44336"/>
<ellipse cx="1442.36" cy="69.7438" rx="17.1414" ry="17.5" transform="rotate(-19.8474 1442.36 69.7438)" fill="#9C27B0"/>
<ellipse cx="1545.63" cy="468.36" rx="21.0594" ry="21.5" transform="rotate(-19.8474 1545.63 468.36)" fill="#E91E63"/>
<ellipse cx="1356.14" cy="2.52506" rx="15.6721" ry="16" transform="rotate(-19.8474 1356.14 2.52506)" fill="#E91E63"/>
<ellipse cx="1487.57" cy="216.62" rx="20.5696" ry="21" transform="rotate(-19.8474 1487.57 216.62)" fill="#F44336"/>
<ellipse cx="1186.35" cy="316.844" rx="5.87704" ry="6" transform="rotate(-19.8474 1186.35 316.844)" fill="#9C27B0"/>
<ellipse cx="1503.71" cy="65.1437" rx="4.89754" ry="5" transform="rotate(-19.8474 1503.71 65.1437)" fill="#9C27B0"/>
<ellipse cx="1198.74" cy="207.368" rx="10.2848" ry="10.5" transform="rotate(-19.8474 1198.74 207.368)" fill="#F44336"/>
<ellipse cx="1265.37" cy="79.9421" rx="4.89754" ry="5" transform="rotate(-19.8474 1265.37 79.9421)" fill="#9C27B0"/>
<ellipse cx="1467.46" cy="450.86" rx="13.2233" ry="13.5" transform="rotate(-19.8474 1467.46 450.86)" fill="#9C27B0"/>
<ellipse cx="1308.48" cy="47.9036" rx="7.3463" ry="7.5" transform="rotate(-19.8474 1308.48 47.9036)" fill="#F44336"/>
<ellipse cx="1429.56" cy="27.0556" rx="13.7131" ry="14" transform="rotate(-19.8474 1429.56 27.0556)" fill="#E91E63"/>
<ellipse cx="1506.1" cy="233.322" rx="18.6106" ry="19" transform="rotate(-19.8474 1506.1 233.322)" fill="#F44336"/>
<ellipse cx="1380.66" cy="395.015" rx="5.38729" ry="5.5" transform="rotate(-19.8474 1380.66 395.015)" fill="#9C27B0"/>
<ellipse cx="1441.42" cy="361.389" rx="8.32581" ry="8.5" transform="rotate(-19.8474 1441.42 361.389)" fill="#F44336"/>
</g>
</g>
</g>
<defs>
<clipPath id="clip0_52_6602">
<rect x="0.5" y="0.5" width="1525" height="457" rx="15" fill="white"/>
</clipPath>
<clipPath id="clip1_52_6602">
<rect width="913" height="566" fill="white" transform="translate(576.5 -54)"/>
</clipPath>
<clipPath id="clip2_52_6602">
<rect width="913" height="566" fill="white" transform="translate(1023 -54)"/>
</clipPath>
</defs>
</svg>
