<svg width="23" height="23" viewBox="0 0 23 23" fill="none" xmlns="http://www.w3.org/2000/svg">
<path d="M1.06408 10.3333H3.33333C4.622 10.3333 5.66667 11.378 5.66667 12.6667V13.8333C5.66667 15.122 6.71134 16.1667 8 16.1667C9.28866 16.1667 10.3333 17.2113 10.3333 18.5V21.9359M6.83333 2.09144V3.91667C6.83333 5.5275 8.13917 6.83333 9.75 6.83333H10.3333C11.622 6.83333 12.6667 7.878 12.6667 9.16667C12.6667 10.4553 13.7113 11.5 15 11.5C16.2887 11.5 17.3333 10.4553 17.3333 9.16667C17.3333 7.878 18.378 6.83333 19.6667 6.83333L20.9086 6.83333M15 21.4025V18.5C15 17.2113 16.0447 16.1667 17.3333 16.1667H20.9086M22 11.5C22 17.299 17.299 22 11.5 22C5.70101 22 1 17.299 1 11.5C1 5.70101 5.70101 1 11.5 1C17.299 1 22 5.70101 22 11.5Z" stroke="#364052" stroke-width="2" stroke-linecap="round" stroke-linejoin="round"/>
</svg>
